<?xml version="1.0" encoding="UTF-8" standalone="no"?>
<!-- Created with Inkscape (http://www.inkscape.org/) -->

<svg
   version="1.1"
   id="svg2"
   width="1496"
   height="1496"
   viewBox="0 0 1496 1496"
   sodipodi:docname="40626.eps"
   xmlns:inkscape="http://www.inkscape.org/namespaces/inkscape"
   xmlns:sodipodi="http://sodipodi.sourceforge.net/DTD/sodipodi-0.dtd"
   xmlns="http://www.w3.org/2000/svg"
   xmlns:svg="http://www.w3.org/2000/svg">
  <defs
     id="defs6" />
  <sodipodi:namedview
     id="namedview4"
     pagecolor="#ffffff"
     bordercolor="#000000"
     borderopacity="0.25"
     inkscape:showpageshadow="2"
     inkscape:pageopacity="0.0"
     inkscape:pagecheckerboard="0"
     inkscape:deskcolor="#d1d1d1" />
  <g
     id="g8"
     inkscape:groupmode="layer"
     inkscape:label="ink_ext_XXXXXX"
     transform="matrix(1.3333333,0,0,-1.3333333,0,1496)">
    <g
       id="g10"
       transform="scale(0.1)">
      <path
         d="M 11220,0 H 0 V 11220 H 11220 V 0"
         style="fill:#ffffff;fill-opacity:1;fill-rule:nonzero;stroke:none"
         id="path12" />
      <path
         d="m 5610,3149.99 c -830.36,0 -1599.03,414.6 -2056.19,1109.06 -30.37,46.14 -17.58,108.15 28.54,138.51 46.14,30.37 108.16,17.59 138.51,-28.54 420.05,-638.08 1126.27,-1019.03 1889.14,-1019.03 538.21,0 1059.56,192.35 1468,541.63 404.04,345.51 674.37,822.89 761.19,1344.2 9.08,54.48 60.54,91.23 115.08,82.21 54.48,-9.07 91.28,-60.59 82.21,-115.07 C 7941.93,4635.33 7647.71,4115.64 7207.99,3739.62 6763.34,3359.39 6195.84,3149.99 5610,3149.99"
         style="fill:#780b00;fill-opacity:1;fill-rule:nonzero;stroke:none"
         id="path14" />
      <path
         d="m 3431.74,6419.88 c -12.86,0 -25.93,2.49 -38.54,7.77 -50.95,21.31 -74.98,79.88 -53.67,130.84 184.92,442.18 493.01,818.61 890.95,1088.6 407.8,276.67 884.83,422.92 1379.52,422.92 608.48,0 1192.51,-223.9 1644.53,-630.45 41.06,-36.93 44.41,-100.16 7.47,-141.23 -36.93,-41.05 -100.14,-44.41 -141.22,-7.47 -415.23,373.47 -951.77,579.15 -1510.78,579.15 -454.5,0 -892.7,-134.32 -1267.23,-388.42 -365.71,-248.13 -648.83,-594.02 -818.73,-1000.27 -16.04,-38.35 -53.19,-61.44 -92.3,-61.44"
         style="fill:#780b00;fill-opacity:1;fill-rule:nonzero;stroke:none"
         id="path16" />
      <path
         d="m 4219.45,6145.14 c -23.82,31.65 -56.63,58.51 -98.21,80.79 -41.65,22.25 -90.48,40.05 -146.5,53.38 -56.02,13.34 -116.35,21.83 -180.93,25.5 -64.51,3.6 -131.86,2.47 -201.87,-3.53 -70.01,-5.9 -139.72,-16.88 -209.09,-32.89 -59.55,-13.75 -117.54,-31.22 -173.91,-52.24 -56.44,-21.12 -109.92,-46.04 -160.42,-74.76 -50.52,-28.72 -97.05,-61.16 -139.53,-97.23 -42.49,-36.24 -79.13,-76.57 -109.87,-121.23 -30.75,-44.58 -54.57,-93 -71.47,-145.27 -16.84,-52.18 -25.1,-108.7 -24.71,-169.31 0.4,-62.52 14.13,-90.67 41.09,-84.44 19.7,4.54 45.02,28.73 76.09,72.66 31.07,43.93 66.29,107.23 105.72,189.85 19.47,31.25 48.01,61.86 85.62,91.68 37.6,29.9 80.78,57.09 129.47,81.78 48.75,24.63 101.28,46.53 157.73,65.81 41.09,14.45 98.78,30.33 173.05,47.48 46.03,10.62 91.44,19.03 136.29,25.37 44.85,6.27 87.54,9.97 128.07,10.92 40.61,0.96 78.1,-0.79 112.55,-5.33 34.44,-4.47 64.44,-12.04 90.05,-22.62 25.54,-10.6 45.49,-24.65 59.71,-42.19 14.29,-17.52 21.51,-38.75 21.67,-63.54 0.25,-37.99 -8.64,-75.59 -26.47,-113.02 -17.95,-37.46 -43.52,-72.43 -76.77,-105.02 -33.31,-32.59 -73.73,-61.62 -121.2,-87.24 -47.47,-25.61 -100.66,-45.18 -159.57,-58.78 -25.18,-5.81 -48.65,-10.11 -70.47,-12.98 -21.82,-2.88 -45.93,-7.32 -72.26,-13.4 -19.7,-4.55 -35.18,-9.72 -46.51,-15.47 -11.33,-5.66 -19.91,-12.28 -25.67,-19.86 -5.82,-7.51 -9.41,-16.26 -10.88,-26.21 -1.46,-9.95 -2.15,-21.4 -2.07,-34.43 0.17,-27.59 7.08,-48.5 20.64,-62.67 13.63,-14.15 31.39,-24.54 53.26,-31.1 21.82,-6.66 46.75,-10.51 74.72,-11.58 27.98,-1.07 56.59,-2.23 85.77,-3.42 29.26,-1.18 57.81,-3.39 85.8,-6.78 27.99,-3.31 52.94,-10.76 74.85,-22.12 21.91,-11.44 39.64,-27.76 53.31,-49.03 13.68,-21.2 20.63,-50.18 20.87,-86.88 0.44,-68.29 -10.68,-127.07 -33.41,-176.36 -22.79,-49.31 -53.1,-92.42 -90.92,-129.34 -37.88,-36.94 -81.36,-67.56 -130.36,-91.84 -49.01,-24.29 -99.59,-42.45 -151.81,-54.51 -42.97,-9.92 -85.97,-15.44 -128.94,-16.47 -43.02,-1.13 -83.32,0.38 -120.83,4.37 -4.93,2.71 -8.67,7.69 -11.14,15.05 -2.54,7.26 -4.57,15.52 -6.16,24.68 -1.59,9.16 -2.42,18.1 -2.48,26.98 -0.06,8.88 -0.1,15.83 -0.13,20.87 -0.2,31.42 0.03,64.31 0.7,98.66 0.74,34.44 1.92,69.07 3.48,104.03 1.63,34.97 3.38,70.69 5.31,107.25 1.94,36.65 4.34,70.03 7.21,100.17 4.57,53.26 10.86,108.13 18.79,164.58 7.87,56.51 16.95,104.49 27.17,143.92 10.22,39.44 25.12,85.24 44.77,137.59 19.58,52.25 43.4,101.15 71.39,146.53 -30.35,44.01 -68.01,60.86 -112.76,50.53 -35.64,-8.23 -75.14,-32.57 -118.49,-73.09 -49.24,-86.08 -87.13,-171.7 -113.59,-256.85 -26.52,-85.25 -47.41,-183.04 -62.66,-293.55 -15.31,-110.52 -25.2,-220.91 -29.66,-331.17 -4.53,-110.28 -6.45,-217.39 -5.78,-321.42 0.13,-20.55 6.79,-33.27 20.04,-38.22 13.25,-5.03 28.52,-7.51 45.7,-7.55 38.79,-4.17 79.99,-6.91 123.61,-8.3 43.68,-1.36 88.05,-0.97 133.25,1.14 45.12,2.09 89.86,5.85 134.07,11.17 44.22,5.4 86.25,12.63 126.16,21.84 63.25,14.6 121.22,34.87 173.92,60.73 52.64,25.93 99.96,55.59 141.88,89.05 41.86,33.46 78.34,69.75 109.44,108.95 31.1,39.22 56.95,79.54 77.63,120.91 20.61,41.28 35.99,82.95 46.19,125.02 10.2,41.99 15.18,82.15 14.93,120.53 -0.32,48.69 -8.34,94.81 -23.94,138.45 -15.67,43.55 -38.95,78.7 -69.84,105.52 -30.95,26.73 -69.18,44.81 -114.7,54.24 -45.59,9.5 -98.7,7.17 -159.46,-6.86 95.75,23.95 177.72,56 246.04,95.96 68.25,40.02 124.22,83.86 167.84,131.57 43.63,47.62 75.61,97.13 95.91,148.42 20.23,51.28 30.19,100.83 29.88,148.65 -0.26,40.06 -12.31,75.95 -36.2,107.52"
         style="fill:#ae4536;fill-opacity:1;fill-rule:nonzero;stroke:none"
         id="path18" />
      <path
         d="m 4457.52,5972.35 c 25.99,-19.95 65.92,-23.7 119.98,-11.22 31.25,7.21 58.12,18.22 80.43,33.14 22.32,14.85 40.85,31.78 55.48,50.85 14.63,18.99 25.23,39.22 31.85,60.85 6.63,21.55 9.88,42.88 9.74,64.15 -0.15,23.11 -4.42,42.14 -12.82,57.1 -8.39,14.96 -19.7,25.96 -33.86,33.02 -14.22,7.05 -30.84,10.9 -49.88,11.47 -19.03,0.65 -39.32,-1.55 -60.8,-6.51 -34.37,-7.93 -63.03,-19.99 -85.97,-36.26 -22.94,-16.27 -41.28,-33.96 -55.01,-53.07 -13.68,-19.09 -23.57,-38.43 -29.58,-57.99 -6,-19.57 -8.95,-36.51 -8.86,-50.82 0.27,-43.18 13.38,-74.67 39.3,-94.71"
         style="fill:#ae4536;fill-opacity:1;fill-rule:nonzero;stroke:none"
         id="path20" />
      <path
         d="m 7828.53,6171.54 c 1.15,19.09 6.68,44.31 16.69,75.69 9.95,31.36 18.72,57.81 26.3,79.26 7.59,21.46 17.62,41.31 30.14,59.66 12.52,18.34 28.19,34.53 46.87,48.54 18.75,14.09 41.35,24.12 67.87,30.24 14.8,3.41 27.28,-2.43 37.6,-17.67 10.25,-15.25 15.49,-36.46 15.67,-63.65 0.12,-19.35 -10.49,-46.38 -31.85,-81.03 -21.42,-34.65 -43.26,-63.32 -65.66,-86.02 -22.39,-22.79 -46.59,-42.79 -72.72,-60.04 -26.07,-17.23 -50.26,-28.41 -72.45,-33.54 -0.08,13.35 0.45,29.5 1.54,48.56 z m -199.69,-292.51 c -1.45,4.39 -2.77,8.85 -4.08,13.32 1.31,-4.47 2.63,-8.93 4.08,-13.32 3.25,-9.88 6.87,-19.4 10.85,-28.55 -3.98,9.15 -7.6,18.67 -10.85,28.55 z m -298.55,423.49 c 2.71,64.14 12.12,140.06 28.09,227.75 15.97,87.69 23.52,129.38 23.92,131.57 0.66,2.42 13.23,48.38 39.74,145.07 26.45,96.6 49.3,167.3 68.55,211.86 19.19,44.64 38.49,80.97 57.79,108.96 19.35,28.02 37.45,43.96 54.34,47.87 4.66,1.07 7.44,-4.69 8.42,-17.28 0.91,-12.6 1.45,-27.93 1.57,-46.01 -5.18,-58.13 -17.72,-122.45 -37.57,-192.94 -19.92,-70.58 -43.53,-142.09 -70.77,-214.69 -27.31,-72.53 -56.29,-143.61 -87,-213.24 -30.7,-69.63 -59.74,-132.55 -87.08,-188.92 z M 5862.79,4927.4 c -3.56,-31.81 -6.57,-59.02 -9.11,-81.7 -2.54,-22.61 -6.49,-43.54 -11.86,-62.8 -9.66,-35.71 -17.59,-64.36 -23.9,-85.92 -6.3,-21.64 -13.57,-43.73 -21.72,-66.44 -8.16,-22.62 -15.83,-40.49 -23.16,-53.63 -7.25,-13.13 -15.79,-25.67 -25.55,-37.53 -9.76,-11.87 -20.49,-20.99 -32.13,-27.44 -11.64,-6.37 -24.83,-11.26 -39.56,-14.66 -40.48,-9.35 -50.81,17.98 -30.85,82.09 24.15,76.28 56.86,153.19 98.24,230.97 41.39,77.7 83.52,137 126.36,177.88 -0.96,-8.79 -3.26,-29.1 -6.76,-60.82 z M 8397.5,6241.08 c -23.75,-28.55 -52.8,-59.6 -86.99,-93.28 -34.2,-33.68 -70.58,-65.86 -109.08,-96.54 -38.56,-30.76 -78.16,-58.08 -118.87,-82.05 -40.77,-23.91 -79.49,-40.13 -116.34,-48.64 -11.73,-2.71 -22.65,-4.03 -32.86,-3.99 -10.16,0.14 -19.87,2.06 -29.16,6.01 -9.28,3.94 -18.45,10.31 -27.45,19.12 -8.99,8.82 -18.14,20.4 -27.48,34.58 53.39,26.9 102.93,58.6 148.6,95.25 45.67,36.57 84.95,75.34 117.95,116.36 33,40.93 61.82,87.54 86.45,139.92 24.62,52.37 36.78,97.3 36.54,134.8 -0.23,35.27 -6.55,65.68 -19.04,91.3 -12.48,25.55 -29.67,45.93 -51.6,60.96 -22,15.03 -47.73,24.78 -77.32,29.08 -29.53,4.32 -61.51,2.54 -95.93,-5.41 -42.15,-9.73 -80.42,-26.09 -114.81,-49.01 -34.4,-22.91 -65.38,-50.25 -93.02,-82.09 -27.56,-31.75 -51.67,-66.63 -72.24,-104.77 -20.5,-38.05 -37.56,-77.06 -51.03,-116.85 -13.47,-39.79 -26.52,-84.92 -39.03,-135.22 -12.51,-50.29 -18.62,-92.54 -18.4,-126.77 0.16,-25.21 1.98,-49.48 5.47,-72.82 1.87,-12.54 4.22,-24.8 7.05,-36.8 -2.83,12 -5.18,24.26 -7.05,36.8 -7.32,-6.76 -14.59,-13.38 -21.8,-19.83 -16.88,-15.19 -34.41,-30.3 -52.57,-45.46 -18.16,-15.16 -35.89,-28.94 -53.11,-41.33 -17.23,-12.38 -33.51,-22.87 -48.9,-31.47 -15.33,-8.51 -28.96,-14.13 -40.95,-16.9 -4.91,-1.13 -10.16,1.26 -15.75,7.09 -5.6,5.92 -10.88,14.39 -15.87,25.41 -5.05,11.08 -9.29,23.8 -12.76,38.37 -3.48,14.5 -5.24,29.87 -5.35,46.1 l -0.08,13.11 c 1.7,12.89 4.11,26.26 7.15,40.09 2.97,13.82 5.95,26.84 8.94,39.14 3.05,12.24 6.17,23.77 9.48,34.55 3.38,10.71 6.52,19.6 9.6,26.56 27.95,62.67 58.49,127.37 91.59,193.88 33.15,66.59 66.11,134.02 98.88,202.37 32.82,68.35 64.3,136.88 94.57,205.61 30.21,68.64 56.78,136.36 79.65,203.06 22.94,66.64 41.04,131.92 54.36,195.77 13.31,63.86 19.81,125.02 19.43,183.55 -0.15,23.59 -2.46,46.2 -6.88,67.92 -4.48,21.71 -12.01,40.39 -22.71,55.86 -10.7,15.54 -25.33,26.58 -43.89,33.27 -18.62,6.67 -42.12,6.69 -70.49,0.14 -39.08,-9.02 -77.46,-29.17 -115.12,-60.45 -37.66,-31.28 -73.74,-70.76 -108.23,-118.2 -34.42,-47.59 -67.28,-101.54 -98.56,-162.02 -31.28,-60.47 -60.24,-124.41 -86.75,-191.79 -26.64,-67.42 -52.96,-154.85 -79.14,-262.36 -26.13,-107.5 -38.6,-158.53 -39.25,-161.22 -0.43,-2.64 -8.47,-52.73 -25.54,-158.21 -17.07,-105.56 -25.35,-188.67 -24.96,-249.37 0.23,-36.12 2.02,-71.04 5.34,-104.77 -16.35,-22.9 -34.41,-46.88 -54.19,-71.95 -32.37,-40.95 -66.34,-79.46 -102.06,-115.57 -35.71,-36.12 -71.33,-67.48 -106.85,-93.94 -35.46,-26.53 -67.92,-43.15 -97.37,-49.95 -29.97,-6.92 -54.43,-5.92 -73.52,3.05 -19.02,8.9 -34.55,22.05 -46.6,39.45 -12.06,17.32 -20.11,37.64 -24.21,60.88 -4.18,23.21 -6.3,45.95 -6.45,68.26 -0.09,14.87 0.43,33.41 1.5,55.68 1.07,22.27 4.1,46.03 9.18,71.39 5.01,25.34 13.55,57.18 25.56,95.59 11.95,38.47 24.14,68.84 36.57,91.25 12.37,22.39 27.45,41.65 45.09,57.81 17.65,16.17 38.96,27.18 64.02,32.96 10.4,2.4 17.12,-1.01 20.25,-10.22 3.12,-9.21 4.73,-21.25 4.82,-36.12 0.76,-17.13 0.51,-28.39 -0.67,-33.63 -8.95,-38.02 -14.29,-62.16 -16.07,-72.5 -5.36,-19.82 -0.57,-40.09 14.5,-60.8 9.15,-13.42 29.23,-16.47 60.27,-9.3 20.6,4.75 38.99,13.88 55.18,27.55 16.2,13.67 32.84,36.25 49.94,67.83 17.1,31.49 28.55,58.16 34.42,80.01 5.86,21.77 8.72,43.18 8.59,64.29 -0.2,30.31 -6.76,57.14 -19.68,80.5 -12.92,23.37 -30.66,42.09 -53.3,56.09 -22.69,13.9 -49.88,22.67 -81.64,26.23 -31.69,3.5 -66.22,0.97 -103.45,-7.63 -41.32,-9.53 -79.2,-25.89 -113.66,-49.06 -34.46,-23.09 -65.63,-50.78 -93.58,-82.94 -27.89,-32.15 -52.37,-67.75 -73.44,-106.65 -21.08,-38.98 -38.7,-78.85 -53,-119.62 -14.22,-40.85 -27.39,-87.77 -39.38,-140.75 -12.04,-52.99 -17.95,-97.44 -17.72,-133.34 0.09,-13.7 0.74,-27.12 1.94,-40.28 3.18,-35 10.28,-68.11 21.25,-99.39 -10.97,31.28 -18.07,64.39 -21.25,99.39 -15.72,-24.69 -30.67,-47.32 -44.85,-67.88 -32.33,-46.79 -61.57,-86.21 -87.8,-118.29 -26.22,-32 -50.07,-58.33 -71.51,-78.73 -21.45,-20.41 -41.52,-38.1 -60.07,-52.87 15.45,109.27 30.69,211.61 45.65,307.16 6.64,40.45 15.23,93.84 25.85,160.28 10.55,66.42 18.84,118.06 24.73,154.9 5.9,36.76 11.18,69.61 15.84,98.47 4.6,28.93 8.29,51.88 11.05,69.1 1.8,7.78 2.71,14.56 2.68,20.16 -0.12,17.91 -6.7,29.6 -19.64,35.02 -12.99,5.33 -28.96,5.89 -48.02,1.49 -16.01,-3.7 -32.88,-10.39 -50.7,-20.12 -17.81,-9.63 -34.91,-22.15 -51.48,-37.42 -16.5,-15.27 -30.88,-32.44 -43.08,-51.36 -12.77,-19.68 -21.26,-40.22 -25.46,-61.69 l -71.53,-364.22 c -2.3,-20.55 -7.49,-46.74 -15.59,-78.55 -8.09,-31.82 -18.81,-63.29 -32.14,-94.48 -13.34,-31.18 -29.12,-58.85 -47.42,-83.1 -18.29,-24.16 -38.76,-38.89 -61.46,-44.13 -14.15,-3.27 -25.84,-2.37 -35.07,2.71 -9.29,5.07 -16.68,12.73 -22.3,23.04 -5.56,10.33 -9.53,22.54 -11.73,36.77 -2.27,14.22 -3.45,29.16 -3.55,44.75 -0.19,30.06 3.22,65.05 10.31,105.04 7.01,40.06 16.57,94.16 28.58,162.44 12,68.28 21.55,122.93 28.76,163.91 7.2,40.91 16.16,76.93 26.82,107.9 3.51,10.1 6.07,19.42 7.48,27.75 1.48,8.43 2.2,16.05 2.15,22.84 -0.14,22.95 -7.97,38.04 -23.34,45.3 -15.43,7.33 -33.89,8.51 -55.32,3.57 -25.18,-5.81 -50.89,-19.03 -77.19,-39.68 -26.3,-20.65 -46.37,-46.51 -60.29,-77.59 -18.81,-43.42 -35.39,-85.85 -49.87,-127.31 -14.55,-41.47 -26.9,-96.46 -37.31,-164.85 -10.36,-68.46 -19.05,-125.88 -26.16,-172.44 -0.56,-3.72 -1.09,-7.46 -1.61,-11.23 -9.38,-12.48 -19.23,-25.26 -29.54,-38.33 -32.37,-40.94 -66.35,-79.46 -102.06,-115.57 -35.78,-36.13 -71.33,-67.48 -106.85,-93.94 -35.46,-26.53 -67.92,-43.15 -97.37,-49.95 -29.97,-6.92 -54.49,-5.93 -73.52,3.05 -19.02,8.9 -34.55,22.05 -46.61,39.44 -12.05,17.32 -20.1,37.65 -24.21,60.88 -4.17,23.23 -6.3,45.96 -6.44,68.27 -0.1,14.87 0.42,33.41 1.5,55.68 1.06,22.27 4.1,46.03 9.18,71.39 5,25.34 13.54,57.18 25.56,95.59 11.94,38.47 24.13,68.83 36.57,91.25 12.37,22.39 27.44,41.65 45.09,57.81 17.64,16.17 38.96,27.18 64.02,32.96 10.39,2.4 17.12,-1.01 20.24,-10.22 3.12,-9.21 4.74,-21.25 4.83,-36.12 0.75,-17.13 0.51,-28.39 -0.68,-33.63 -8.95,-38.03 -14.28,-62.16 -16.06,-72.5 -5.37,-19.82 -0.58,-40.09 14.5,-60.8 9.15,-13.42 29.22,-16.47 60.27,-9.31 20.6,4.76 38.99,13.89 55.18,27.56 16.2,13.67 32.84,36.25 49.94,67.83 17.1,31.49 28.55,58.16 34.41,80.01 5.87,21.77 8.73,43.18 8.59,64.29 -0.19,30.31 -6.75,57.14 -19.67,80.5 -12.92,23.36 -30.67,42.09 -53.3,56.08 -22.69,13.91 -49.89,22.68 -81.64,26.24 -31.76,3.48 -66.22,0.97 -103.46,-7.62 -41.31,-9.54 -79.19,-25.9 -113.65,-49.07 -34.46,-23.09 -65.63,-50.79 -93.58,-82.94 -27.89,-32.15 -52.37,-67.75 -73.44,-106.65 -21.08,-38.98 -38.7,-78.85 -53,-119.62 -14.23,-40.85 -27.4,-87.77 -39.38,-140.75 -12.04,-52.99 -17.95,-97.44 -17.72,-133.34 0.18,-27.82 2.66,-54.52 7.4,-80.14 0.64,-3.42 1.37,-6.79 2.09,-10.18 -0.72,3.38 -1.45,6.76 -2.09,10.18 -17.41,-19.06 -35.09,-37.83 -53.07,-56.37 -27.46,-28.36 -54.63,-53.37 -81.56,-75.05 -26.93,-21.75 -51.37,-35.16 -73.49,-40.27 -19.06,-4.4 -31.67,0.94 -37.9,15.92 -6.23,14.98 -9.49,36.41 -9.67,64.23 -0.19,28.47 4.07,61.08 12.64,97.98 8.64,36.83 15.69,73.53 21.26,110.13 5.57,36.6 16.14,81.72 31.62,135.43 15.49,53.63 27.15,97.24 35.04,130.94 7.83,33.67 14.86,63.64 21,89.97 6.09,26.31 9.15,46.32 9.07,59.91 -0.11,16.07 -4.71,27.9 -13.83,35.41 -9.12,7.5 -26.36,8.33 -51.67,2.48 -13.83,-3.19 -29.38,-8.54 -46.51,-15.94 -17.19,-7.41 -33.74,-16.52 -49.69,-27.41 -15.9,-10.88 -30.18,-23.46 -42.73,-37.65 -13.82,-15.68 -22.2,-31.71 -25.1,-48.08 -5.34,-23.58 -19.37,-75.03 -42.24,-154.29 -24.46,-96.55 -40.86,-158.95 -49.03,-187.35 -4.95,-14.43 -15.98,-77.44 -32.95,-189.06 -8.27,-54.04 -12.24,-100.53 -12,-139.47 0.19,-27.91 3.22,-52.75 9.23,-74.59 5.96,-21.85 15.77,-39.28 29.39,-52.31 13.56,-12.97 31.3,-21.44 53.17,-25.37 21.86,-3.92 48.73,-2.2 80.67,5.17 35.58,8.22 73.15,23.38 112.66,45.55 39.51,22.1 78.17,47.28 116.1,75.58 37.94,28.3 73.25,57.83 105.93,88.68 12.71,11.97 24.61,23.54 35.71,34.71 -3.7,5.28 -7.23,10.72 -10.58,16.34 3.35,-5.62 6.88,-11.06 10.58,-16.34 9.09,-12.96 19.2,-24.9 30.32,-35.81 29.31,-28.55 65.44,-48.39 108.55,-59.5 43.05,-11.2 93.04,-10.15 149.84,2.97 32.45,7.49 64.43,19.99 95.98,37.45 31.49,17.52 61.82,37.89 90.85,61.01 29.03,23.12 56.9,48.29 83.42,75.48 26.57,27.19 51.17,54.58 73.73,82.13 9.03,10.95 17.95,22.08 26.76,33.4 3.35,-17.91 8.35,-34.34 15.03,-49.3 13.09,-29.57 30.42,-53.12 52.05,-70.79 21.63,-17.59 46.48,-29.23 74.48,-34.86 28,-5.62 56.74,-5 86.19,1.8 33.73,7.79 68.54,24.88 104.32,51.23 35.78,26.37 70.19,58.01 103.14,95.09 l -19.55,-116.87 c -38.48,-43 -71.55,-82.5 -99.28,-118.62 -27.74,-36.11 -62.93,-83.56 -105.59,-142.33 -21.33,-28.47 -41.69,-59.44 -61.14,-93.08 -19.51,-34.21 -33.77,-60.25 -42.85,-78.19 -9.08,-17.88 -24.9,-49.8 -47.34,-95.9 -40.01,-82.27 -57.41,-155.64 -52.08,-220.08 2.71,-34.04 11.19,-62.28 25.45,-84.69 14.25,-22.42 32.42,-38.48 54.58,-48.26 22.15,-9.7 46.58,-15.11 73.28,-16 26.69,-0.96 55.6,2.11 86.9,9.33 38.57,8.91 74.05,23.35 106.42,43.15 32.43,19.9 60,42.6 82.88,67.99 22.83,25.45 43.65,54.6 62.46,87.45 18.82,32.85 33.94,65.09 45.42,96.49 11.41,31.55 21.35,65.47 29.67,101.75 8.39,36.37 14.11,68.28 17.32,95.85 3.15,27.55 6.54,56.6 10.1,86.98 0.75,12.5 2.87,30.61 6.23,54.13 7.58,81.75 14.37,138.01 20.43,168.8 6,30.85 17.34,53.73 34.1,68.82 68.68,62.3 109.11,100.14 121.35,113.46 40.28,41.81 62.6,64.82 66.85,68.85 13.46,12.95 35.4,37.08 65.94,72.48 17.36,20.5 33.85,41.26 49.5,62.26 v 0 c 8.89,-12.55 18.74,-24.12 29.56,-34.72 29.31,-28.55 65.44,-48.4 108.55,-59.51 43.05,-11.2 93.04,-10.15 149.84,2.96 32.45,7.5 64.43,20 95.98,37.46 31.56,17.53 61.82,37.89 90.85,61.01 29.1,23.13 56.9,48.3 83.42,75.48 26.57,27.19 51.17,54.57 73.73,82.12 28.65,34.74 56.22,71.31 82.71,109.72 10.2,-36.74 22.38,-69.63 36.55,-98.68 21.42,-43.9 46.41,-76.97 75.03,-99.35 28.62,-22.39 59.45,-29.76 92.47,-22.14 21.49,4.96 44.55,13.09 69.19,24.38 24.57,11.28 49.83,24.56 75.66,39.97 25.88,15.43 51.58,32.09 77.06,50.07 25.55,17.98 50.28,35.95 74.23,53.89 18.2,13.97 36.46,28.42 54.79,43.34 -9.16,10.44 -17.52,21.7 -25.08,33.78 7.56,-12.08 15.92,-23.34 25.08,-33.78 2.93,-3.34 5.95,-6.61 9.04,-9.79 28.86,-29.61 64.87,-50.12 107.98,-61.63 43.18,-11.5 93.36,-10.64 150.68,2.59 36.85,8.51 73.23,21.23 109.07,38.08 35.84,16.92 70.45,36.36 103.82,58.48 33.38,22.04 65.16,45.79 95.45,71.29 30.22,25.55 58.54,50.91 84.81,76.11 60.47,58.65 117.52,123.23 171.15,193.67 l -119.57,94.28"
         style="fill:#ae4536;fill-opacity:1;fill-rule:nonzero;stroke:none"
         id="path22" />
      <path
         d="m 5610,2863.78 c -27.61,0 -50,22.39 -50,50 0,27.61 22.39,50 50,50 639.82,0 1257.37,231.37 1738.89,651.49 476.92,416.1 789.35,988.34 879.76,1611.3 3.97,27.33 29.37,46.24 56.66,42.3 27.33,-3.97 46.27,-29.34 42.3,-56.67 C 8233.78,4565.62 7909.54,3971.72 7414.63,3539.92 6914.89,3103.9 6273.99,2863.78 5610,2863.78"
         style="fill:#e6a670;fill-opacity:1;fill-rule:nonzero;stroke:none"
         id="path24" />
      <path
         d="m 3071.18,6469.91 c -5.6,0 -11.29,0.94 -16.87,2.95 -25.99,9.31 -39.52,37.94 -30.19,63.93 189.1,527.57 530.98,979.67 988.67,1307.44 467.72,334.95 1020.02,511.99 1597.21,511.99 27.61,0 50,-22.39 50,-50 0,-27.61 -22.39,-50 -50,-50 -556.18,0 -1088.35,-170.58 -1538.98,-493.29 -441.1,-315.88 -770.56,-751.54 -952.77,-1259.88 -7.32,-20.42 -26.56,-33.14 -47.07,-33.14"
         style="fill:#e6a670;fill-opacity:1;fill-rule:nonzero;stroke:none"
         id="path26" />
      <path
         d="m 6504.5,4947.83 c -12.44,3.96 -28.46,6.51 -48.19,7.78 -18.99,0.94 -32.49,3.49 -40.35,7.75 -7.86,4.27 -11.83,12.26 -11.91,23.91 -0.09,13.55 4.22,25.28 12.99,35.22 8.83,9.95 20.81,16.71 36.06,20.23 25.39,5.86 48.66,0.66 69.75,-15.54 l 14,42.37 c -9.56,8.87 -21.81,14.71 -36.77,17.5 -14.95,2.79 -30.69,2.24 -47.26,-1.59 -18.1,-4.18 -34.06,-11.69 -47.8,-22.69 -13.74,-10.92 -24.34,-24.02 -31.74,-39.31 -7.41,-15.36 -11.09,-31.7 -10.98,-49.16 0.16,-24.37 7.05,-41.35 20.59,-51.05 13.54,-9.61 35.15,-15.03 64.77,-16.19 19.07,-0.93 32.69,-3.36 41.02,-7.44 8.32,-3.99 12.56,-11.59 12.63,-22.64 0.08,-13.06 -4.36,-24.16 -13.27,-33.46 -8.9,-9.22 -21.47,-15.79 -37.85,-19.56 -14.78,-3.42 -28.46,-3.99 -40.96,-1.72 -12.49,2.2 -24.54,7.41 -36.09,15.57 l -14.33,-42.45 c 11.15,-8.75 24.6,-14.39 40.41,-16.82 15.82,-2.5 32.82,-1.58 50.92,2.6 19.22,4.44 35.84,11.85 49.98,22.36 14.08,10.42 24.82,23.14 32.22,38 7.48,14.89 11.09,31.21 10.98,48.92 -0.11,16.05 -3.51,28.67 -10.2,37.78 -6.7,9.12 -16.24,15.66 -28.62,19.63"
         style="fill:#ae4536;fill-opacity:1;fill-rule:nonzero;stroke:none"
         id="path28" />
      <path
         d="m 6811,5164.4 0.79,-123.81 -120.93,-27.91 -0.8,123.81 -42.1,-9.72 1.91,-295.77 42.1,9.72 -0.82,128.38 120.93,27.92 0.83,-128.38 42.36,9.78 -1.91,295.76 -42.36,-9.78"
         style="fill:#ae4536;fill-opacity:1;fill-rule:nonzero;stroke:none"
         id="path30" />
      <path
         d="m 7127.86,5008.73 c -12.08,-21.7 -29,-35.01 -50.88,-40.07 -21.87,-5.05 -38.9,0.43 -51.16,16.51 -12.32,16.06 -18.53,41.6 -18.75,76.78 -0.23,35.17 5.63,63.5 17.71,84.86 12.01,21.34 28.92,34.58 50.8,39.63 21.88,5.05 38.91,-0.43 51.24,-16.32 12.25,-15.82 18.52,-41.27 18.74,-76.19 0.23,-35.18 -5.69,-63.53 -17.7,-85.2 z m 7.36,215.96 c -16.98,8.32 -36.9,9.8 -59.92,4.49 -22.94,-5.3 -42.85,-15.97 -59.68,-32.1 -16.83,-16.04 -29.64,-36.58 -38.58,-61.54 -8.93,-24.88 -13.27,-52.78 -13.08,-83.54 0.21,-31.02 4.96,-56.9 14.32,-77.56 9.29,-20.75 22.4,-35.39 39.39,-43.79 16.98,-8.4 36.85,-9.98 59.59,-4.73 23.01,5.32 42.79,16.04 59.55,32.23 16.7,16.19 29.51,36.81 38.39,61.75 8.93,24.88 13.26,52.86 13.06,83.88 -0.2,30.76 -4.81,56.6 -13.91,77.31 -9.1,20.8 -22.14,35.37 -39.13,43.6"
         style="fill:#ae4536;fill-opacity:1;fill-rule:nonzero;stroke:none"
         id="path32" />
      <path
         d="m 7429.08,5187.52 c -7.58,-9.41 -18.75,-15.82 -33.54,-19.23 l -54.63,-12.61 -0.58,89.38 54.64,12.62 c 15.04,3.47 26.34,2.25 33.88,-3.67 7.54,-5.84 11.39,-16.11 11.49,-30.83 0.09,-14.38 -3.68,-26.33 -11.26,-35.66 z m 30.07,103.47 c -14.28,12.1 -34.09,15.19 -59.48,9.32 l -102.37,-23.63 1.91,-295.77 42.76,9.88 -0.79,123.39 59.6,13.76 c 25.19,5.81 44.83,18.1 58.99,36.86 14.15,18.83 21.11,41.51 20.94,68.12 -0.17,26.61 -7.34,45.94 -21.56,58.07"
         style="fill:#ae4536;fill-opacity:1;fill-rule:nonzero;stroke:none"
         id="path34" />
    </g>
  </g>
</svg>
